HIERARCHY
ROOT COM
{
  OFFSET 0.000000 0.000000 0.000000
  CHANNELS 6 Xposition Yposition Zposition Zrotation Xrotation Yrotation
  JOINT Spine
  {
    OFFSET 0.000000 10.031300 -3.647750
    CHANNELS 3 Zrotation Xrotation Yrotation
    JOINT Spine1
    {
      OFFSET 0.000000 14.268000 -0.012359
      CHANNELS 3 Zrotation Xrotation Yrotation
      JOINT Spine2
      {
        OFFSET 0.000000 15.553400 -0.011802
        CHANNELS 3 Zrotation Xrotation Yrotation
        JOINT Neck
        {
          OFFSET 0.000000 15.343700 -0.005077
          CHANNELS 3 Zrotation Xrotation Yrotation
          JOINT Head
          {
            OFFSET 0.000000 6.594300 0.000000
            CHANNELS 3 Zrotation Xrotation Yrotation
            End Site
            {
              OFFSET 0.000000 0.000000 0.000000
            }
          }
          JOINT Leftcollar
          {
            OFFSET 4.254290 -1.548100 1.990670
            CHANNELS 3 Zrotation Xrotation Yrotation
            JOINT LeftArm
            {
              OFFSET 16.825900 0.000000 0.000000
              CHANNELS 3 Zrotation Xrotation Yrotation
              JOINT LeftForeArm
              {
                OFFSET 0.000000 -28.058000 0.000000
                CHANNELS 3 Zrotation Xrotation Yrotation
                JOINT LeftHand
                {
                  OFFSET 0.000000 -24.725300 0.000000
                  CHANNELS 3 Zrotation Xrotation Yrotation
                  End Site
                  {
                    OFFSET -2.986150 -9.946190 -0.575321
                  }
                }
              }
            }
          }
          JOINT RightCollar
          {
            OFFSET -4.254280 -1.548090 1.990690
            CHANNELS 3 Zrotation Xrotation Yrotation
            JOINT RightArm
            {
              OFFSET -16.825900 0.000000 0.000000
              CHANNELS 3 Zrotation Xrotation Yrotation
              JOINT RightForeArm
              {
                OFFSET 0.000000 -28.058000 0.000000
                CHANNELS 3 Zrotation Xrotation Yrotation
                JOINT RightHand
                {
                  OFFSET 0.000000 -24.725300 0.000000
                  CHANNELS 3 Zrotation Xrotation Yrotation
                  End Site
                  {
                    OFFSET 2.986150 -9.946180 -0.575319
                  }
                }
              }
            }
          }
        }
      }
    }
  }
  JOINT LeftUpLeg
  {
    OFFSET 9.942750 0.000000 0.000000
    CHANNELS 3 Zrotation Xrotation Yrotation
    JOINT LeftLeg
    {
      OFFSET 0.000000 -45.973000 0.000000
      CHANNELS 3 Zrotation Xrotation Yrotation
      JOINT LeftFoot
      {
        OFFSET 0.000000 -43.163400 0.000000
        CHANNELS 3 Zrotation Xrotation Yrotation
        JOINT LeftToe
        {
          OFFSET 0.000000 0.000000 15.628600
          CHANNELS 3 Zrotation Xrotation Yrotation
          End Site
          {
            OFFSET 0.000000 0.000000 0.000000
          }
        }
      }
    }
  }
  JOINT RightUpLeg
  {
    OFFSET -9.942750 0.000000 0.000000
    CHANNELS 3 Zrotation Xrotation Yrotation
    JOINT RightLeg
    {
      OFFSET 0.000000 -45.973000 0.000000
      CHANNELS 3 Zrotation Xrotation Yrotation
      JOINT RightFoot
      {
        OFFSET 0.000000 -43.163400 0.000000
        CHANNELS 3 Zrotation Xrotation Yrotation
        JOINT RightToe
        {
          OFFSET 0.000000 0.000000 15.628600
          CHANNELS 3 Zrotation Xrotation Yrotation
          End Site
          {
            OFFSET 0.000000 0.000000 0.000000
          }
        }
      }
    }
  }
}
MOTION
Frames: 15
Frame Time: 0.033333
14.860500 92.484300 4.409850 10.702000 348.229900 206.241000 5.297300 344.626500 0.000000 0.000000 360.000000 3.999750 0.000000 0.000000 0.000000 0.000000 0.000000 0.000000 0.000000 0.000000 0.000000 0.000000 0.000000 0.000000 20.292500 3.263070 339.588200 0.000000 332.955300 0.000000 360.000000 0.000000 90.000000 0.000000 0.000000 0.000000 338.458100 355.494610 31.773700 0.000000 335.029700 0.000000 360.000000 0.000000 270.000000 12.166300 323.058100 9.017520 0.000000 65.144500 360.000000 360.000000 0.460477 359.096321 0.000000 0.000000 0.000000 10.727800 340.360400 348.727200 0.000000 16.123300 360.000000 0.000000 356.722930 12.093600 360.000000 360.000000 360.000000 
13.800300 92.503800 1.476040 10.538100 347.702400 205.916000 4.792210 344.586800 0.000000 360.000000 0.000000 5.352700 0.000000 0.000000 0.000000 0.000000 0.000000 0.000000 0.000000 0.000000 0.000000 0.000000 0.000000 0.000000 19.521600 6.234810 339.751900 0.000000 335.603300 360.000000 360.000000 360.000000 90.000000 0.000000 0.000000 0.000000 337.101500 351.253980 30.021500 0.000000 333.685400 360.000000 360.000000 0.000000 270.000000 11.809300 319.525200 9.368520 0.000000 59.035300 360.000000 359.994317 358.427290 359.095756 0.000000 0.000000 0.000000 10.617900 342.704900 348.264800 0.000000 14.586100 360.000000 0.000000 355.825340 12.883500 0.000000 0.000000 0.000000 
12.728100 92.324800 -1.405070 10.658500 347.279400 205.627000 4.593710 344.655700 360.000000 0.000000 360.000000 6.665470 360.000000 360.000000 0.000000 360.000000 360.000000 0.000000 360.000000 360.000000 0.000000 360.000000 360.000000 0.000000 18.827400 8.739230 340.260500 360.000000 338.430600 360.000000 0.000000 0.000000 90.000000 360.000000 360.000000 0.000000 335.661300 347.444100 27.222100 0.000000 331.833100 0.000000 0.000000 0.000000 270.000000 11.898100 316.699800 10.506600 360.000000 51.335700 0.000000 360.000000 357.944450 359.704878 0.000000 0.000000 360.000000 10.731200 344.821400 347.765600 0.000000 13.485000 0.000000 0.000000 354.750540 13.835300 0.000000 0.000000 0.000000 
11.559100 92.012800 -4.414860 10.628100 347.175100 205.643000 4.242820 345.061900 0.000000 360.000000 360.000000 7.625770 0.000000 360.000000 0.000000 0.000000 0.000000 0.000000 0.000000 0.000000 0.000000 0.000000 0.000000 0.000000 18.393000 10.801400 341.097000 0.000000 341.290500 0.000000 0.000000 0.000000 90.000000 0.000000 0.000000 0.000000 334.294200 344.343400 24.244800 0.000000 329.863700 360.000000 360.000000 0.000000 270.000000 11.358000 315.285500 12.037400 360.000000 41.638800 0.000000 360.000000 358.378210 0.400806 360.000000 0.000000 360.000000 10.723200 347.099300 347.581200 360.000000 12.955000 360.000000 0.000000 353.455690 14.093100 0.000000 0.000000 360.000000 
10.273200 91.570200 -7.472030 10.815100 346.596400 205.341000 4.067260 344.822500 360.000000 0.000000 360.000000 8.708190 0.000000 0.000000 0.000000 0.000000 0.000000 0.000000 0.000000 0.000000 0.000000 0.000000 0.000000 0.000000 17.993000 12.740400 342.024100 360.000000 343.781800 360.000000 0.000000 360.000000 90.000000 0.000000 0.000000 0.000000 332.864700 341.665800 22.266900 0.000000 327.951200 360.000000 360.000000 0.000000 270.000000 10.931000 314.479100 15.335500 360.000000 30.529500 0.000000 0.000000 359.350127 358.687450 0.000000 0.000000 0.000000 10.699600 348.800300 347.286500 360.000000 12.730200 0.000000 0.000000 352.299530 14.713400 360.000000 0.000000 360.000000 
8.843760 90.984500 -10.713900 11.108800 345.878400 205.156000 3.926100 344.174400 360.000000 0.000000 360.000000 9.687020 0.000000 0.000000 0.000000 0.000000 0.000000 0.000000 0.000000 0.000000 0.000000 0.000000 0.000000 0.000000 17.865200 14.551700 342.300400 360.000000 345.626400 0.000000 360.000000 0.000000 90.000000 0.000000 0.000000 0.000000 331.811700 339.629100 20.117300 0.000000 326.345900 0.000000 360.000000 0.000000 270.000000 9.421560 314.519600 19.945200 0.000000 17.915700 0.000000 360.000000 0.219048 355.453710 360.000000 0.000000 360.000000 10.584700 350.548240 346.587000 360.000000 12.363500 0.000000 360.000000 350.975680 15.820600 0.000000 360.000000 0.000000 
7.194550 90.324400 -14.074800 11.488300 344.934300 204.803000 3.985170 343.130300 0.000000 360.000000 360.000000 10.749000 0.000000 0.000000 0.000000 0.000000 0.000000 0.000000 0.000000 0.000000 0.000000 0.000000 0.000000 0.000000 17.668100 16.186800 343.554400 360.000000 346.850900 0.000000 360.000000 0.000000 90.000000 0.000000 0.000000 0.000000 330.942300 338.426700 18.819100 0.000000 324.420500 0.000000 360.000000 360.000000 270.000000 6.996290 314.548200 23.423300 360.000000 6.926970 360.000000 360.000000 0.836678 351.456410 360.000000 360.000000 0.000000 10.221300 352.202780 345.307300 0.000000 12.014700 360.000000 360.000000 350.071140 17.613900 0.000000 0.000000 0.000000 
5.360260 89.600400 -17.577900 11.796300 344.584200 204.359000 4.337440 342.610700 0.000000 0.000000 0.000000 11.590900 0.000000 0.000000 0.000000 0.000000 0.000000 0.000000 0.000000 0.000000 0.000000 0.000000 0.000000 0.000000 17.452200 17.459000 344.170300 360.000000 347.788300 360.000000 0.000000 0.000000 90.000000 0.000000 0.000000 0.000000 330.287800 337.668600 18.088200 0.000000 322.757500 360.000000 360.000000 0.000000 270.000000 5.694380 314.307800 22.836300 0.000000 2.983220 0.000000 360.000000 358.769200 349.896300 360.000000 0.000000 360.000000 9.758350 354.149020 343.779400 360.000000 12.548800 0.000000 360.000000 349.396700 19.893700 0.000000 0.000000 0.000000 
3.542960 88.968000 -21.256900 11.508600 344.028200 204.351000 3.604210 341.966300 0.000000 360.000000 360.000000 11.580600 0.000000 0.000000 0.000000 0.000000 360.000000 360.000000 0.000000 360.000000 360.000000 0.000000 360.000000 360.000000 17.481200 18.027700 344.817600 0.000000 348.585600 0.000000 360.000000 360.000000 90.000000 0.000000 360.000000 360.000000 330.662100 337.586000 17.651000 0.000000 321.677400 0.000000 360.000000 0.000000 270.000000 5.159170 312.668600 21.167200 360.000000 8.892490 360.000000 360.000000 359.889362 350.801530 0.000000 360.000000 360.000000 8.787520 355.799940 343.676200 0.000000 13.772700 360.000000 360.000000 349.421400 20.143900 360.000000 0.000000 360.000000 
1.328960 88.547400 -25.292200 9.995830 343.637100 203.804000 2.023890 341.599400 0.000000 360.000000 0.000000 11.881100 0.000000 0.000000 0.000000 0.000000 0.000000 0.000000 0.000000 0.000000 0.000000 0.000000 0.000000 0.000000 17.472400 18.148000 345.068300 360.000000 349.144900 360.000000 0.000000 0.000000 90.000000 0.000000 0.000000 0.000000 331.556100 338.680500 17.143500 0.000000 320.896200 0.000000 0.000000 360.000000 270.000000 3.141570 312.295000 16.509500 360.000000 15.001100 360.000000 360.000000 0.834409 354.545530 360.000000 0.000000 360.000000 6.427860 357.759320 342.986200 0.000000 16.114200 360.000000 0.000000 350.311550 21.435700 0.000000 360.000000 0.000000 
-0.998939 88.337800 -29.502400 8.361240 342.806000 202.894000 0.271088 340.607100 0.000000 360.000000 0.000000 12.056700 360.000000 0.000000 0.000000 0.000000 360.000000 0.000000 360.000000 360.000000 0.000000 360.000000 360.000000 0.000000 17.367500 17.955400 345.894400 0.000000 349.335500 0.000000 360.000000 0.000000 90.000000 360.000000 360.000000 0.000000 332.734200 340.557800 18.556700 0.000000 320.656800 360.000000 360.000000 0.000000 270.000000 0.850697 312.251000 11.774700 0.000000 20.322300 0.000000 0.000000 2.074270 359.054529 360.000000 360.000000 0.000000 3.611510 358.586960 343.120500 0.000000 19.982400 360.000000 0.000000 352.701850 22.189800 0.000000 360.000000 0.000000 
-3.347240 88.406200 -33.745400 6.905460 342.203900 202.769000 358.450620 339.662400 0.000000 360.000000 0.000000 10.861900 0.000000 0.000000 0.000000 0.000000 0.000000 0.000000 0.000000 0.000000 0.000000 0.000000 0.000000 0.000000 17.239100 17.214500 346.293900 0.000000 349.219200 0.000000 360.000000 0.000000 90.000000 0.000000 0.000000 0.000000 334.497500 342.586100 20.515700 0.000000 321.437900 360.000000 360.000000 0.000000 270.000000 358.419320 312.364900 8.051690 0.000000 26.184200 0.000000 360.000000 1.064500 1.118810 360.000000 0.000000 360.000000 0.785526 358.031390 343.453800 0.000000 26.456400 360.000000 0.000000 357.156750 22.114200 0.000000 0.000000 0.000000 
-5.587430 88.743900 -37.732400 5.346280 342.424200 202.920000 356.799630 339.916100 360.000000 0.000000 0.000000 8.660060 0.000000 0.000000 0.000000 0.000000 360.000000 360.000000 0.000000 0.000000 0.000000 0.000000 0.000000 0.000000 17.052100 15.723700 345.520700 0.000000 348.538600 0.000000 360.000000 0.000000 90.000000 0.000000 0.000000 0.000000 336.351500 344.327700 23.250700 0.000000 322.891500 0.000000 360.000000 0.000000 270.000000 356.450070 314.432000 7.602960 360.000000 29.735000 360.000000 0.001131 358.940320 0.471137 360.000000 0.000000 360.000000 357.962650 356.058470 344.229800 360.000000 36.294000 0.000000 0.000000 3.624880 20.724500 360.000000 360.000000 0.000000 
-7.695900 89.179000 -41.417300 4.185960 342.808800 202.518000 356.045610 340.381500 0.000000 360.000000 360.000000 6.901420 0.000000 0.000000 360.000000 0.000000 0.000000 360.000000 0.000000 0.000000 360.000000 0.000000 0.000000 360.000000 16.834500 13.445700 344.589100 0.000000 347.175500 0.000000 0.000000 0.000000 90.000000 0.000000 0.000000 360.000000 337.800600 346.420200 26.630800 0.000000 324.132000 360.000000 360.000000 360.000000 270.000000 355.349390 317.493700 7.950420 360.000000 31.007600 360.000000 360.000000 356.673960 359.922387 360.000000 0.000000 360.000000 355.715710 352.161290 346.364600 360.000000 47.811400 0.000000 360.000000 10.837200 17.798000 0.000000 360.000000 360.000000 
-9.564590 89.659400 -44.720300 3.488430 342.816600 201.991000 355.704830 340.655300 0.000000 360.000000 360.000000 5.258910 0.000000 0.000000 0.000000 0.000000 360.000000 360.000000 0.000000 0.000000 0.000000 0.000000 0.000000 0.000000 16.958100 10.222000 343.405600 0.000000 345.413200 0.000000 0.000000 0.000000 90.000000 0.000000 0.000000 0.000000 338.868100 348.445100 30.510600 360.000000 325.724500 360.000000 360.000000 0.000000 270.000000 354.515420 320.252800 7.630490 360.000000 31.198200 0.000000 360.000000 354.503740 0.283031 360.000000 360.000000 0.000000 354.155470 346.556200 348.623800 0.000000 58.222600 360.000000 0.000000 18.534100 14.491500 0.000000 0.000000 0.000000 
